<?xml version="1.0" encoding="UTF-8" standalone="no"?>
<!DOCTYPE svg PUBLIC "-//W3C//DTD SVG 1.1//EN"
 "http://www.w3.org/Graphics/SVG/1.1/DTD/svg11.dtd">
<!-- Generated by graphviz version 2.47.0 (20210316.0004)
 -->
<!-- Title: dependencies Pages: 1 -->
<svg width="2216pt" height="284pt"
 viewBox="0.00 0.00 2216.00 284.00" xmlns="http://www.w3.org/2000/svg" xmlns:xlink="http://www.w3.org/1999/xlink">
<g id="graph0" class="graph" transform="scale(1 1) rotate(0) translate(4 280)">
<title>dependencies</title>
<polygon fill="white" stroke="transparent" points="-4,4 -4,-280 2212,-280 2212,4 -4,4"/>
<text text-anchor="start" x="1083.01" y="-42.4" font-family="Times-12" font-weight="bold" font-size="14.00">Legend</text>
<polygon fill="#ffffb3" stroke="transparent" points="870,-10 870,-30 890,-30 890,-10 870,-10"/>
<text text-anchor="start" x="893.63" y="-15.4" font-family="Times-12" font-size="14.00"> &#160;Declarations</text>
<polygon fill="#8dd3c7" stroke="transparent" points="983,-10 983,-30 1003,-30 1003,-10 983,-10"/>
<text text-anchor="start" x="1006.73" y="-15.4" font-family="Times-12" font-size="14.00"> &#160;Module</text>
<polygon fill="#80b1d3" stroke="transparent" points="1069,-10 1069,-30 1089,-30 1089,-10 1069,-10"/>
<text text-anchor="start" x="1092.78" y="-15.4" font-family="Times-12" font-size="14.00"> &#160;Bootstrap</text>
<polygon fill="#fdb462" stroke="transparent" points="1166,-10 1166,-30 1186,-30 1186,-10 1166,-10"/>
<text text-anchor="start" x="1189.67" y="-15.4" font-family="Times-12" font-size="14.00"> &#160;Providers</text>
<polygon fill="#fb8072" stroke="transparent" points="1262,-10 1262,-30 1282,-30 1282,-10 1262,-10"/>
<text text-anchor="start" x="1285.73" y="-15.4" font-family="Times-12" font-size="14.00"> &#160;Exports</text>
<g id="clust1" class="cluster">
<title>cluster_AppModule</title>
<polygon fill="none" stroke="black" stroke-dasharray="1,5" points="8,-70 8,-268 2200,-268 2200,-70 8,-70"/>
</g>
<g id="clust2" class="cluster">
<title>cluster_AppModule_declarations</title>
<polygon fill="none" stroke="black" points="168,-78 168,-130 2192,-130 2192,-78 168,-78"/>
</g>
<g id="clust16" class="cluster">
<title>cluster_AppModule_imports</title>
<polygon fill="none" stroke="black" points="16,-78 16,-130 160,-130 160,-78 16,-78"/>
</g>
<g id="clust18" class="cluster">
<title>cluster_AppModule_bootstrap</title>
<polygon fill="none" stroke="black" points="1080,-208 1080,-260 1204,-260 1204,-208 1080,-208"/>
</g>
<!-- AboutComponent -->
<g id="node1" class="node">
<title>AboutComponent</title>
<polygon fill="#ffffb3" stroke="black" points="2184.33,-122 2067.67,-122 2067.67,-86 2184.33,-86 2184.33,-122"/>
<text text-anchor="middle" x="2126" y="-99.8" font-family="Times,serif" font-size="14.00">AboutComponent</text>
</g>
<!-- AppModule -->
<g id="node14" class="node">
<title>AppModule</title>
<polygon fill="#8dd3c7" stroke="black" points="1183.66,-187 1180.66,-191 1159.66,-191 1156.66,-187 1100.34,-187 1100.34,-151 1183.66,-151 1183.66,-187"/>
<text text-anchor="middle" x="1142" y="-164.8" font-family="Times,serif" font-size="14.00">AppModule</text>
</g>
<!-- AboutComponent&#45;&gt;AppModule -->
<g id="edge1" class="edge">
<title>AboutComponent&#45;&gt;AppModule</title>
<path fill="none" stroke="black" d="M2126,-122.09C2126,-145.13 2126,-182 2126,-182 2126,-182 1193.97,-182 1193.97,-182"/>
<polygon fill="black" stroke="black" points="1193.97,-178.5 1183.97,-182 1193.97,-185.5 1193.97,-178.5"/>
</g>
<!-- AddRestaurantComponent -->
<g id="node2" class="node">
<title>AddRestaurantComponent</title>
<polygon fill="#ffffb3" stroke="black" points="2049.81,-122 1884.19,-122 1884.19,-86 2049.81,-86 2049.81,-122"/>
<text text-anchor="middle" x="1967" y="-99.8" font-family="Times,serif" font-size="14.00">AddRestaurantComponent</text>
</g>
<!-- AddRestaurantComponent&#45;&gt;AppModule -->
<g id="edge2" class="edge">
<title>AddRestaurantComponent&#45;&gt;AppModule</title>
<path fill="none" stroke="black" d="M1967,-122.04C1967,-143.66 1967,-177 1967,-177 1967,-177 1193.76,-177 1193.76,-177"/>
<polygon fill="black" stroke="black" points="1193.76,-173.5 1183.76,-177 1193.76,-180.5 1193.76,-173.5"/>
</g>
<!-- AppComponent -->
<g id="node3" class="node">
<title>AppComponent</title>
<polygon fill="#ffffb3" stroke="black" points="1866.94,-122 1761.06,-122 1761.06,-86 1866.94,-86 1866.94,-122"/>
<text text-anchor="middle" x="1814" y="-99.8" font-family="Times,serif" font-size="14.00">AppComponent</text>
</g>
<!-- AppComponent&#45;&gt;AppModule -->
<g id="edge3" class="edge">
<title>AppComponent&#45;&gt;AppModule</title>
<path fill="none" stroke="black" d="M1814,-122.22C1814,-142.37 1814,-172 1814,-172 1814,-172 1193.78,-172 1193.78,-172"/>
<polygon fill="black" stroke="black" points="1193.78,-168.5 1183.78,-172 1193.78,-175.5 1193.78,-168.5"/>
</g>
<!-- CartComponent -->
<g id="node4" class="node">
<title>CartComponent</title>
<polygon fill="#ffffb3" stroke="black" points="1743.94,-122 1638.06,-122 1638.06,-86 1743.94,-86 1743.94,-122"/>
<text text-anchor="middle" x="1691" y="-99.8" font-family="Times,serif" font-size="14.00">CartComponent</text>
</g>
<!-- CartComponent&#45;&gt;AppModule -->
<g id="edge4" class="edge">
<title>CartComponent&#45;&gt;AppModule</title>
<path fill="none" stroke="black" d="M1691,-122.22C1691,-140.83 1691,-167 1691,-167 1691,-167 1193.71,-167 1193.71,-167"/>
<polygon fill="black" stroke="black" points="1193.71,-163.5 1183.71,-167 1193.71,-170.5 1193.71,-163.5"/>
</g>
<!-- LandingPageComponent -->
<g id="node5" class="node">
<title>LandingPageComponent</title>
<polygon fill="#ffffb3" stroke="black" points="1620.7,-122 1465.3,-122 1465.3,-86 1620.7,-86 1620.7,-122"/>
<text text-anchor="middle" x="1543" y="-99.8" font-family="Times,serif" font-size="14.00">LandingPageComponent</text>
</g>
<!-- LandingPageComponent&#45;&gt;AppModule -->
<g id="edge5" class="edge">
<title>LandingPageComponent&#45;&gt;AppModule</title>
<path fill="none" stroke="black" d="M1543,-122.03C1543,-139.06 1543,-162 1543,-162 1543,-162 1193.78,-162 1193.78,-162"/>
<polygon fill="black" stroke="black" points="1193.78,-158.5 1183.78,-162 1193.78,-165.5 1193.78,-158.5"/>
</g>
<!-- LoginComponent -->
<g id="node6" class="node">
<title>LoginComponent</title>
<polygon fill="#ffffb3" stroke="black" points="1447.28,-122 1332.72,-122 1332.72,-86 1447.28,-86 1447.28,-122"/>
<text text-anchor="middle" x="1390" y="-99.8" font-family="Times,serif" font-size="14.00">LoginComponent</text>
</g>
<!-- LoginComponent&#45;&gt;AppModule -->
<g id="edge6" class="edge">
<title>LoginComponent&#45;&gt;AppModule</title>
<path fill="none" stroke="black" d="M1390,-122.24C1390,-137.57 1390,-157 1390,-157 1390,-157 1193.79,-157 1193.79,-157"/>
<polygon fill="black" stroke="black" points="1193.79,-153.5 1183.79,-157 1193.79,-160.5 1193.79,-153.5"/>
</g>
<!-- MenuItemFormComponent -->
<g id="node7" class="node">
<title>MenuItemFormComponent</title>
<polygon fill="#ffffb3" stroke="black" points="1314.98,-122 1145.02,-122 1145.02,-86 1314.98,-86 1314.98,-122"/>
<text text-anchor="middle" x="1230" y="-99.8" font-family="Times,serif" font-size="14.00">MenuItemFormComponent</text>
</g>
<!-- MenuItemFormComponent&#45;&gt;AppModule -->
<g id="edge7" class="edge">
<title>MenuItemFormComponent&#45;&gt;AppModule</title>
<path fill="none" stroke="black" d="M1164.42,-122.11C1164.42,-122.11 1164.42,-140.99 1164.42,-140.99"/>
<polygon fill="black" stroke="black" points="1160.92,-140.99 1164.42,-150.99 1167.92,-140.99 1160.92,-140.99"/>
</g>
<!-- MenuItemsComponent -->
<g id="node8" class="node">
<title>MenuItemsComponent</title>
<polygon fill="#ffffb3" stroke="black" points="1126.59,-122 981.41,-122 981.41,-86 1126.59,-86 1126.59,-122"/>
<text text-anchor="middle" x="1054" y="-99.8" font-family="Times,serif" font-size="14.00">MenuItemsComponent</text>
</g>
<!-- MenuItemsComponent&#45;&gt;AppModule -->
<g id="edge8" class="edge">
<title>MenuItemsComponent&#45;&gt;AppModule</title>
<path fill="none" stroke="black" d="M1113.36,-122.11C1113.36,-122.11 1113.36,-140.99 1113.36,-140.99"/>
<polygon fill="black" stroke="black" points="1109.86,-140.99 1113.36,-150.99 1116.86,-140.99 1109.86,-140.99"/>
</g>
<!-- MyordersComponent -->
<g id="node9" class="node">
<title>MyordersComponent</title>
<polygon fill="#ffffb3" stroke="black" points="963.76,-122 828.24,-122 828.24,-86 963.76,-86 963.76,-122"/>
<text text-anchor="middle" x="896" y="-99.8" font-family="Times,serif" font-size="14.00">MyordersComponent</text>
</g>
<!-- MyordersComponent&#45;&gt;AppModule -->
<g id="edge9" class="edge">
<title>MyordersComponent&#45;&gt;AppModule</title>
<path fill="none" stroke="black" d="M896,-122.24C896,-137.57 896,-157 896,-157 896,-157 1090.27,-157 1090.27,-157"/>
<polygon fill="black" stroke="black" points="1090.27,-160.5 1100.27,-157 1090.27,-153.5 1090.27,-160.5"/>
</g>
<!-- RegisterComponent -->
<g id="node10" class="node">
<title>RegisterComponent</title>
<polygon fill="#ffffb3" stroke="black" points="809.98,-122 682.02,-122 682.02,-86 809.98,-86 809.98,-122"/>
<text text-anchor="middle" x="746" y="-99.8" font-family="Times,serif" font-size="14.00">RegisterComponent</text>
</g>
<!-- RegisterComponent&#45;&gt;AppModule -->
<g id="edge10" class="edge">
<title>RegisterComponent&#45;&gt;AppModule</title>
<path fill="none" stroke="black" d="M746,-122.03C746,-139.06 746,-162 746,-162 746,-162 1090,-162 1090,-162"/>
<polygon fill="black" stroke="black" points="1090,-165.5 1100,-162 1090,-158.5 1090,-165.5"/>
</g>
<!-- RestaurantsComponent -->
<g id="node11" class="node">
<title>RestaurantsComponent</title>
<polygon fill="#ffffb3" stroke="black" points="664.14,-122 517.86,-122 517.86,-86 664.14,-86 664.14,-122"/>
<text text-anchor="middle" x="591" y="-99.8" font-family="Times,serif" font-size="14.00">RestaurantsComponent</text>
</g>
<!-- RestaurantsComponent&#45;&gt;AppModule -->
<g id="edge11" class="edge">
<title>RestaurantsComponent&#45;&gt;AppModule</title>
<path fill="none" stroke="black" d="M591,-122.22C591,-140.83 591,-167 591,-167 591,-167 1090.13,-167 1090.13,-167"/>
<polygon fill="black" stroke="black" points="1090.13,-170.5 1100.13,-167 1090.13,-163.5 1090.13,-170.5"/>
</g>
<!-- StripePaymentComponent -->
<g id="node12" class="node">
<title>StripePaymentComponent</title>
<polygon fill="#ffffb3" stroke="black" points="499.76,-122 336.24,-122 336.24,-86 499.76,-86 499.76,-122"/>
<text text-anchor="middle" x="418" y="-99.8" font-family="Times,serif" font-size="14.00">StripePaymentComponent</text>
</g>
<!-- StripePaymentComponent&#45;&gt;AppModule -->
<g id="edge12" class="edge">
<title>StripePaymentComponent&#45;&gt;AppModule</title>
<path fill="none" stroke="black" d="M418,-122.22C418,-142.37 418,-172 418,-172 418,-172 1090.21,-172 1090.21,-172"/>
<polygon fill="black" stroke="black" points="1090.21,-175.5 1100.21,-172 1090.21,-168.5 1090.21,-175.5"/>
</g>
<!-- UserordersComponent -->
<g id="node13" class="node">
<title>UserordersComponent</title>
<polygon fill="#ffffb3" stroke="black" points="318.24,-122 175.76,-122 175.76,-86 318.24,-86 318.24,-122"/>
<text text-anchor="middle" x="247" y="-99.8" font-family="Times,serif" font-size="14.00">UserordersComponent</text>
</g>
<!-- UserordersComponent&#45;&gt;AppModule -->
<g id="edge13" class="edge">
<title>UserordersComponent&#45;&gt;AppModule</title>
<path fill="none" stroke="black" d="M247,-122.04C247,-143.66 247,-177 247,-177 247,-177 1090.33,-177 1090.33,-177"/>
<polygon fill="black" stroke="black" points="1090.33,-180.5 1100.33,-177 1090.33,-173.5 1090.33,-180.5"/>
</g>
<!-- AppComponent  -->
<g id="node16" class="node">
<title>AppComponent </title>
<polygon fill="#80b1d3" stroke="black" points="1196.44,-252 1087.56,-252 1087.56,-216 1196.44,-216 1196.44,-252"/>
<text text-anchor="middle" x="1142" y="-229.8" font-family="Times,serif" font-size="14.00">AppComponent </text>
</g>
<!-- AppModule&#45;&gt;AppComponent  -->
<g id="edge15" class="edge">
<title>AppModule&#45;&gt;AppComponent </title>
<path fill="none" stroke="black" stroke-dasharray="1,5" d="M1142,-187.11C1142,-187.11 1142,-205.99 1142,-205.99"/>
<polygon fill="black" stroke="black" points="1138.5,-205.99 1142,-215.99 1145.5,-205.99 1138.5,-205.99"/>
</g>
<!-- AppRoutingModule -->
<g id="node15" class="node">
<title>AppRoutingModule</title>
<polygon fill="#8dd3c7" stroke="black" points="152.27,-122 149.27,-126 128.27,-126 125.27,-122 23.73,-122 23.73,-86 152.27,-86 152.27,-122"/>
<text text-anchor="middle" x="88" y="-99.8" font-family="Times,serif" font-size="14.00">AppRoutingModule</text>
</g>
<!-- AppRoutingModule&#45;&gt;AppModule -->
<g id="edge14" class="edge">
<title>AppRoutingModule&#45;&gt;AppModule</title>
<path fill="none" stroke="black" d="M88,-122.09C88,-145.13 88,-182 88,-182 88,-182 1090.03,-182 1090.03,-182"/>
<polygon fill="black" stroke="black" points="1090.03,-185.5 1100.03,-182 1090.03,-178.5 1090.03,-185.5"/>
</g>
</g>
</svg>
